<svg width="19" height="12" viewBox="0 0 19 12" fill="none" xmlns="http://www.w3.org/2000/svg">
<path fill-rule="evenodd" clip-rule="evenodd" d="M7.08971 5.77846C7.08971 3.94154 7.93841 2.30608 9.25983 1.24768C8.28542 0.467233 7.05453 0 5.71493 0C2.55869 0 0 2.58713 0 5.77846C0 8.96978 2.55869 11.5569 5.71493 11.5569C7.05453 11.5569 8.28542 11.0897 9.25983 10.3092C7.93841 9.25083 7.08971 7.61537 7.08971 5.77846" fill="#EB001B"/>
<path fill-rule="evenodd" clip-rule="evenodd" d="M7.08971 5.77846C7.08971 7.61537 7.93841 9.25084 9.25983 10.3092C10.5812 9.25084 11.4299 7.61537 11.4299 5.77846C11.4299 3.94154 10.5812 2.30608 9.25983 1.24768C7.93841 2.30608 7.08971 3.94154 7.08971 5.77846" fill="#FF5E00"/>
<path fill-rule="evenodd" clip-rule="evenodd" d="M12.8046 0C11.465 0 10.2342 0.467233 9.25983 1.24768C10.5812 2.30615 11.4299 3.94154 11.4299 5.77846C11.4299 7.61537 10.5812 9.25083 9.25983 10.3092C10.2342 11.0897 11.465 11.5569 12.8046 11.5569C15.9609 11.5569 18.5196 8.96978 18.5196 5.77846C18.5196 2.58713 15.9609 0 12.8046 0" fill="#F79E1C"/>
</svg>
