<svg width="12" height="14" viewBox="0 0 12 14" fill="none" xmlns="http://www.w3.org/2000/svg">
<path d="M9.93401 1.05579C9.29652 0.316817 8.14415 0 6.66992 0H2.3913C2.08998 1.13472e-05 1.83338 0.222835 1.78616 0.525501L0.00462312 12.0167C-0.030788 12.2433 0.141738 12.4485 0.367564 12.4485H3.00903L3.67242 8.16914L3.65183 8.30314C3.69909 8.00065 3.95347 7.77755 4.25469 7.77755H5.50991C7.97578 7.77755 9.90661 6.75893 10.4706 3.81228C10.4874 3.72513 10.5019 3.64031 10.5144 3.55744C10.4432 3.5191 10.4432 3.5191 10.5144 3.55744C10.6824 2.46833 10.5133 1.72698 9.93401 1.05579" fill="#27346A"/>
<path d="M4.68315 3.1651C4.75536 3.13013 4.83434 3.11201 4.91432 3.11206H8.26868C8.66589 3.11206 9.03638 3.13835 9.37494 3.19377C9.46967 3.20913 9.56392 3.22747 9.65754 3.24876C9.79023 3.27854 9.92139 3.31499 10.0505 3.35797C10.217 3.4145 10.372 3.48034 10.5145 3.55744C10.6824 2.46791 10.5133 1.72698 9.93401 1.05579C9.29615 0.316817 8.14415 0 6.66992 0H2.39094C2.08967 0 1.83337 0.223061 1.78616 0.525501L0.00462337 12.0163C-0.0307878 12.2432 0.141738 12.4481 0.367198 12.4481H3.00903L4.38535 3.57177C4.41283 3.39466 4.52417 3.24261 4.68315 3.1651Z" fill="#27346A"/>
<path d="M10.4706 3.81218C9.90661 6.75841 7.97583 7.77745 5.50991 7.77745H4.25432C3.9531 7.77745 3.69868 8.00056 3.65188 8.30305L2.82658 13.6239C2.79574 13.8222 2.94654 14.0019 3.14382 14.0019H5.37051C5.63401 14.0018 5.85834 13.8069 5.89952 13.5422L5.92121 13.4268L6.34088 10.7218L6.36792 10.5723C6.4091 10.3076 6.6334 10.1127 6.89689 10.1126H7.23014C9.38715 10.1126 11.0761 9.22135 11.5697 6.64381C11.7757 5.56666 11.6691 4.66734 11.1241 4.03566C10.9588 3.84434 10.7535 3.68632 10.5144 3.55734C10.5015 3.64063 10.4874 3.72503 10.4706 3.81218V3.81218Z" fill="#2790C3"/>
<path d="M9.92413 3.31797C9.83618 3.29185 9.74741 3.26873 9.65795 3.24864C9.56428 3.2277 9.47004 3.20948 9.37534 3.19402C9.03642 3.13823 8.66621 3.11189 8.26863 3.11189H4.91469C4.83464 3.11171 4.7556 3.12999 4.68351 3.16536C4.52434 3.24263 4.4129 3.39479 4.38567 3.57202L3.67278 8.16901L3.65219 8.30302C3.69909 8.00053 3.95346 7.77742 4.25473 7.77742H5.51032C7.97619 7.77742 9.90697 6.75881 10.471 3.81216C10.4878 3.72501 10.5019 3.64056 10.5148 3.55732C10.372 3.48064 10.2174 3.41438 10.0509 3.35822C10.0089 3.34406 9.96664 3.33064 9.92417 3.31797" fill="#1F264F"/>
</svg>
