<svg width="17" height="17" viewBox="0 0 17 17" fill="none" xmlns="http://www.w3.org/2000/svg">
<g clip-path="url(#clip0_1_1335)">
<path d="M1.66667 1.66668H15V11.6667H2.64167L1.66667 12.6417V1.66668ZM1.66667 1.52588e-05C0.75 1.52588e-05 0.00833333 0.750015 0.00833333 1.66668L0 16.6667L3.33333 13.3333H15C15.9167 13.3333 16.6667 12.5833 16.6667 11.6667V1.66668C16.6667 0.750015 15.9167 1.52588e-05 15 1.52588e-05H1.66667ZM3.33333 8.33335H13.3333V10H3.33333V8.33335ZM3.33333 5.83335H13.3333V7.50002H3.33333V5.83335ZM3.33333 3.33335H13.3333V5.00002H3.33333V3.33335Z" fill="#8B96A5"/>
</g>
<defs>
<clipPath id="clip0_1_1335">
<rect width="16.6667" height="16.6667" fill="white"/>
</clipPath>
</defs>
</svg>
