<svg width="19" height="16" viewBox="0 0 19 16" fill="none" xmlns="http://www.w3.org/2000/svg">
<g clip-path="url(#clip0_1_1340)">
<path d="M17.5 5.81665H13.5083L9.85833 0.349985C9.7 0.116651 9.43333 -1.52588e-05 9.16667 -1.52588e-05C8.9 -1.52588e-05 8.63333 0.116651 8.475 0.358318L4.825 5.81665H0.833333C0.375 5.81665 0 6.19165 0 6.64999C0 6.72499 0.0083333 6.79999 0.0333333 6.87499L2.15 14.6C2.34167 15.3 2.98333 15.8167 3.75 15.8167H14.5833C15.35 15.8167 15.9917 15.3 16.1917 14.6L18.3083 6.87499L18.3333 6.64999C18.3333 6.19165 17.9583 5.81665 17.5 5.81665ZM9.16667 2.31665L11.5 5.81665H6.83333L9.16667 2.31665ZM14.5833 14.15L3.75833 14.1583L1.925 7.48332H16.4167L14.5833 14.15ZM9.16667 9.14998C8.25 9.14998 7.5 9.89998 7.5 10.8167C7.5 11.7333 8.25 12.4833 9.16667 12.4833C10.0833 12.4833 10.8333 11.7333 10.8333 10.8167C10.8333 9.89998 10.0833 9.14998 9.16667 9.14998Z" fill="#8B96A5"/>
</g>
<defs>
<clipPath id="clip0_1_1340">
<rect width="18.3333" height="15.8167" fill="white"/>
</clipPath>
</defs>
</svg>
