<svg width="19" height="19" viewBox="0 0 19 19" fill="none" xmlns="http://www.w3.org/2000/svg">
<g clip-path="url(#clip0_2_1056)">
<path d="M13.3375 10.0833C14.025 10.0833 14.63 9.7075 14.9417 9.13917L18.2233 3.19C18.5625 2.585 18.1225 1.83333 17.4258 1.83333H3.85917L2.9975 0H0V1.83333H1.83333L5.13333 8.79083L3.89583 11.0275C3.22667 12.2558 4.10667 13.75 5.5 13.75H16.5V11.9167H5.5L6.50833 10.0833H13.3375ZM4.73 3.66667H15.8675L13.3375 8.25H6.9025L4.73 3.66667ZM5.5 14.6667C4.49167 14.6667 3.67583 15.4917 3.67583 16.5C3.67583 17.5083 4.49167 18.3333 5.5 18.3333C6.50833 18.3333 7.33333 17.5083 7.33333 16.5C7.33333 15.4917 6.50833 14.6667 5.5 14.6667ZM14.6667 14.6667C13.6583 14.6667 12.8425 15.4917 12.8425 16.5C12.8425 17.5083 13.6583 18.3333 14.6667 18.3333C15.675 18.3333 16.5 17.5083 16.5 16.5C16.5 15.4917 15.675 14.6667 14.6667 14.6667Z" fill="#0D6EFD"/>
</g>
<defs>
<clipPath id="clip0_2_1056">
<rect width="18.3401" height="18.3334" fill="white"/>
</clipPath>
</defs>
</svg>
