<svg width="128" height="44" viewBox="0 0 128 44" fill="none" xmlns="http://www.w3.org/2000/svg">
<g clip-path="url(#clip0_1_1498)">
<path d="M50.2136 31.8061H59.103C63.7762 31.8061 66.2652 29.3679 66.2652 26.056C66.2652 22.9778 64.0607 21.1186 61.6936 21.0069V20.8037C63.8575 20.316 65.4525 18.782 65.4525 16.3336C65.4525 13.2147 63.1362 11 58.5442 11H50.2136V31.8061ZM54.6126 28.2098V22.6831H58.3004C60.4135 22.6831 61.724 23.9022 61.724 25.6192C61.724 27.1837 60.6573 28.2098 58.1988 28.2098H54.6126ZM54.6126 19.7065V14.5557H57.955C59.9055 14.5557 61.0129 15.5615 61.0129 17.0651C61.0129 18.7109 59.6719 19.7065 57.8737 19.7065H54.6126Z" fill="#8CB7F5"/>
<path d="M68.5182 31.8061H72.846V22.9778C72.846 21.0577 74.248 19.737 76.1579 19.737C76.7573 19.737 77.5802 19.8385 77.9866 19.9706V16.1304C77.6005 16.039 77.0621 15.978 76.6252 15.978C74.8779 15.978 73.4454 16.994 72.8765 18.9242H72.7139V16.2015H68.5182V31.8061Z" fill="#8CB7F5"/>
<path d="M83.6987 32.1008C86.0049 32.1008 87.4983 31.095 88.2602 29.6422H88.3822V31.8061H92.4865V21.2812C92.4865 17.5629 89.3371 15.9984 85.8627 15.9984C82.1241 15.9984 79.6655 17.7864 79.0661 20.631L83.0689 20.9561C83.3635 19.9198 84.288 19.1579 85.8423 19.1579C87.3154 19.1579 88.1587 19.8995 88.1587 21.1796V21.2405C88.1587 22.2463 87.0919 22.3784 84.3794 22.6425C81.291 22.927 78.5175 23.9632 78.5175 27.4478C78.5175 30.5362 80.7221 32.1008 83.6987 32.1008ZM84.9382 29.1139C83.6073 29.1139 82.6523 28.4942 82.6523 27.3056C82.6523 26.0865 83.6581 25.4871 85.182 25.2737C86.1268 25.1417 87.671 24.9182 88.1891 24.5728V26.2287C88.1891 27.8644 86.838 29.1139 84.9382 29.1139Z" fill="#8CB7F5"/>
<path d="M99.6438 22.7847C99.654 20.7732 100.853 19.5947 102.6 19.5947C104.337 19.5947 105.384 20.7326 105.374 22.6425V31.8061H109.701V21.8704C109.701 18.2334 107.568 15.9984 104.317 15.9984C102.001 15.9984 100.324 17.1362 99.6235 18.9547H99.4406V16.2015H95.316V31.8061H99.6438V22.7847Z" fill="#8CB7F5"/>
<path d="M118.334 32.0601C120.854 32.0601 122.164 30.6074 122.764 29.307H122.947V31.8061H127.214V11H122.896V18.8226H122.764C122.185 17.5527 120.935 15.9984 118.324 15.9984C114.901 15.9984 112.005 18.6601 112.005 24.0242C112.005 29.246 114.779 32.0601 118.334 32.0601ZM119.706 28.6161C117.583 28.6161 116.424 26.7265 116.424 24.0038C116.424 21.3015 117.562 19.4423 119.706 19.4423C121.809 19.4423 122.987 21.2202 122.987 24.0038C122.987 26.7875 121.789 28.6161 119.706 28.6161Z" fill="#8CB7F5"/>
<g opacity="0.8">
<path fill-rule="evenodd" clip-rule="evenodd" d="M14.4674 1.91309H37.1848C40.9487 1.91309 44 5.28555 44 9.4457V34.5544C44 38.7145 40.9487 42.087 37.1848 42.087H14.4674C10.7035 42.087 7.65218 38.7145 7.65218 34.5544L7.65218 9.4457C7.65218 5.28555 10.7035 1.91309 14.4674 1.91309Z" fill="#0D6EFD" fill-opacity="0.2"/>
<path fill-rule="evenodd" clip-rule="evenodd" d="M8.13044 1.91309H32.0435C36.0055 1.91309 39.2174 5.28555 39.2174 9.4457V34.5544C39.2174 38.7145 36.0055 42.087 32.0435 42.087H8.13044C4.1684 42.087 0.956527 38.7145 0.956528 34.5544L0.956528 9.4457C0.956527 5.28555 4.1684 1.91309 8.13044 1.91309Z" fill="#0D6EFD"/>
<g opacity="0.7">
<path opacity="0.3" fill-rule="evenodd" clip-rule="evenodd" d="M15.2902 18.3563H14.3096C14.2591 18.3563 14.1842 18.4266 14.1813 18.4731L13.4589 30.1478L26.9548 30.1452L26.2253 18.4731C26.2225 18.4284 26.1457 18.3563 26.0969 18.3563H25.1164V20.3216C25.1164 20.8643 24.6765 21.3042 24.1338 21.3042C23.5911 21.3042 23.1511 20.8643 23.1511 20.3216V18.3563H17.2554V20.3216C17.2554 20.8643 16.8155 21.3042 16.2728 21.3042C15.7301 21.3042 15.2902 20.8643 15.2902 20.3216V18.3563Z" fill="white"/>
<path fill-rule="evenodd" clip-rule="evenodd" d="M20.2033 11.4783C22.9153 11.4783 25.1164 13.6796 25.1164 16.3891L26.0969 16.3914C27.1834 16.3914 28.1192 17.2704 28.1867 18.3508L28.9244 30.1539C28.992 31.2361 28.1698 32.1133 27.0865 32.1133H13.3201C12.2374 32.1133 11.4146 31.2344 11.4821 30.1539L12.2198 18.3508C12.2875 17.2686 13.2213 16.3914 14.3096 16.3914H15.2902C15.2902 13.6781 17.493 11.4783 20.2033 11.4783ZM23.1511 16.3915C23.1511 14.765 21.8299 13.4436 20.2033 13.4436C18.5778 13.4436 17.2554 14.7642 17.2554 16.3892L23.1511 16.3915ZM15.2902 18.3566H14.3096C14.2591 18.3566 14.1842 18.4269 14.1812 18.4733L13.4589 30.148L26.9548 30.1455L26.2253 18.4733C26.2225 18.4286 26.1457 18.3566 26.0969 18.3566H25.1164V20.3218C25.1164 20.8645 24.6764 21.3044 24.1338 21.3044C23.5911 21.3044 23.1511 20.8645 23.1511 20.3218V18.3566H17.2554V20.3218C17.2554 20.8645 16.8155 21.3044 16.2728 21.3044C15.7301 21.3044 15.2902 20.8645 15.2902 20.3218V18.3566Z" fill="white"/>
</g>
</g>
</g>
<defs>
<clipPath id="clip0_1_1498">
<rect width="127.214" height="44" fill="white"/>
</clipPath>
</defs>
</svg>
